<mxfile host="app.diagrams.net" modified="2022-01-05T07:45:52.253Z" agent="5.0 (Windows NT 10.0; Win64; x64) AppleWebKit/537.36 (KHTML, like Gecko) Chrome/96.0.4664.110 Safari/537.36 Edg/96.0.1054.62" etag="l1wIDbj-W4MpWkX3tu15" version="16.2.1" type="github">
  <diagram id="R2lEEEUBdFMjLlhIrx00" name="Page-1">
    <mxGraphModel dx="1298" dy="460" grid="1" gridSize="10" guides="1" tooltips="1" connect="1" arrows="1" fold="1" page="1" pageScale="1" pageWidth="850" pageHeight="1100" math="0" shadow="0" extFonts="Permanent Marker^https://fonts.googleapis.com/css?family=Permanent+Marker">
      <root>
        <mxCell id="0" />
        <mxCell id="1" parent="0" />
        <mxCell id="6ywwPEVSYomNdrlcN4WN-1" value="老师" style="rounded=0;whiteSpace=wrap;html=1;" vertex="1" parent="1">
          <mxGeometry x="120" y="360" width="90" height="50" as="geometry" />
        </mxCell>
        <mxCell id="6ywwPEVSYomNdrlcN4WN-2" value="学生" style="rounded=0;whiteSpace=wrap;html=1;" vertex="1" parent="1">
          <mxGeometry x="120" y="100" width="80" height="60" as="geometry" />
        </mxCell>
        <mxCell id="6ywwPEVSYomNdrlcN4WN-7" value="学号" style="ellipse;whiteSpace=wrap;html=1;" vertex="1" parent="1">
          <mxGeometry y="10" width="80" height="40" as="geometry" />
        </mxCell>
        <mxCell id="6ywwPEVSYomNdrlcN4WN-8" value="性别" style="ellipse;whiteSpace=wrap;html=1;" vertex="1" parent="1">
          <mxGeometry x="190" y="10" width="80" height="40" as="geometry" />
        </mxCell>
        <mxCell id="6ywwPEVSYomNdrlcN4WN-9" value="年龄" style="ellipse;whiteSpace=wrap;html=1;" vertex="1" parent="1">
          <mxGeometry x="290" y="10" width="90" height="40" as="geometry" />
        </mxCell>
        <mxCell id="6ywwPEVSYomNdrlcN4WN-10" value="姓名" style="ellipse;whiteSpace=wrap;html=1;" vertex="1" parent="1">
          <mxGeometry x="90" y="10" width="90" height="40" as="geometry" />
        </mxCell>
        <mxCell id="6ywwPEVSYomNdrlcN4WN-24" value="国籍" style="ellipse;whiteSpace=wrap;html=1;" vertex="1" parent="1">
          <mxGeometry y="80" width="80" height="40" as="geometry" />
        </mxCell>
        <mxCell id="6ywwPEVSYomNdrlcN4WN-25" value="班级" style="ellipse;whiteSpace=wrap;html=1;" vertex="1" parent="1">
          <mxGeometry y="140" width="77" height="40" as="geometry" />
        </mxCell>
        <mxCell id="6ywwPEVSYomNdrlcN4WN-30" value="" style="endArrow=none;html=1;rounded=0;exitX=0;exitY=0;exitDx=0;exitDy=0;entryX=0.5;entryY=1;entryDx=0;entryDy=0;" edge="1" parent="1" source="6ywwPEVSYomNdrlcN4WN-2" target="6ywwPEVSYomNdrlcN4WN-7">
          <mxGeometry width="50" height="50" relative="1" as="geometry">
            <mxPoint x="120" y="150" as="sourcePoint" />
            <mxPoint x="170" y="100" as="targetPoint" />
          </mxGeometry>
        </mxCell>
        <mxCell id="6ywwPEVSYomNdrlcN4WN-31" value="" style="endArrow=none;html=1;rounded=0;entryX=0.5;entryY=0;entryDx=0;entryDy=0;exitX=0.5;exitY=1;exitDx=0;exitDy=0;" edge="1" parent="1" source="6ywwPEVSYomNdrlcN4WN-10" target="6ywwPEVSYomNdrlcN4WN-2">
          <mxGeometry width="50" height="50" relative="1" as="geometry">
            <mxPoint x="110" y="290" as="sourcePoint" />
            <mxPoint x="160" y="240" as="targetPoint" />
          </mxGeometry>
        </mxCell>
        <mxCell id="6ywwPEVSYomNdrlcN4WN-32" value="" style="endArrow=none;html=1;rounded=0;exitX=0.5;exitY=1;exitDx=0;exitDy=0;entryX=0.75;entryY=0;entryDx=0;entryDy=0;" edge="1" parent="1" source="6ywwPEVSYomNdrlcN4WN-8" target="6ywwPEVSYomNdrlcN4WN-2">
          <mxGeometry width="50" height="50" relative="1" as="geometry">
            <mxPoint x="200" y="280" as="sourcePoint" />
            <mxPoint x="250" y="230" as="targetPoint" />
          </mxGeometry>
        </mxCell>
        <mxCell id="6ywwPEVSYomNdrlcN4WN-33" value="" style="endArrow=none;html=1;rounded=0;exitX=1;exitY=0;exitDx=0;exitDy=0;entryX=0.5;entryY=1;entryDx=0;entryDy=0;" edge="1" parent="1" source="6ywwPEVSYomNdrlcN4WN-2" target="6ywwPEVSYomNdrlcN4WN-9">
          <mxGeometry width="50" height="50" relative="1" as="geometry">
            <mxPoint x="315" y="210" as="sourcePoint" />
            <mxPoint x="365" y="160" as="targetPoint" />
          </mxGeometry>
        </mxCell>
        <mxCell id="6ywwPEVSYomNdrlcN4WN-34" value="" style="endArrow=none;html=1;rounded=0;entryX=0;entryY=0.75;entryDx=0;entryDy=0;exitX=1;exitY=0.5;exitDx=0;exitDy=0;" edge="1" parent="1" source="6ywwPEVSYomNdrlcN4WN-25" target="6ywwPEVSYomNdrlcN4WN-2">
          <mxGeometry width="50" height="50" relative="1" as="geometry">
            <mxPoint x="180" y="330" as="sourcePoint" />
            <mxPoint x="230" y="280" as="targetPoint" />
          </mxGeometry>
        </mxCell>
        <mxCell id="6ywwPEVSYomNdrlcN4WN-35" value="" style="endArrow=none;html=1;rounded=0;entryX=0;entryY=0.25;entryDx=0;entryDy=0;exitX=1;exitY=0.5;exitDx=0;exitDy=0;" edge="1" parent="1" source="6ywwPEVSYomNdrlcN4WN-24" target="6ywwPEVSYomNdrlcN4WN-2">
          <mxGeometry width="50" height="50" relative="1" as="geometry">
            <mxPoint x="190" y="260" as="sourcePoint" />
            <mxPoint x="240" y="210" as="targetPoint" />
          </mxGeometry>
        </mxCell>
        <mxCell id="6ywwPEVSYomNdrlcN4WN-36" value="性别" style="ellipse;whiteSpace=wrap;html=1;" vertex="1" parent="1">
          <mxGeometry x="2" y="440" width="78" height="40" as="geometry" />
        </mxCell>
        <mxCell id="6ywwPEVSYomNdrlcN4WN-37" value="年龄" style="ellipse;whiteSpace=wrap;html=1;" vertex="1" parent="1">
          <mxGeometry x="90" y="480" width="75" height="40" as="geometry" />
        </mxCell>
        <mxCell id="6ywwPEVSYomNdrlcN4WN-38" value="姓名&lt;span style=&quot;white-space: pre&quot;&gt;	&lt;/span&gt;" style="ellipse;whiteSpace=wrap;html=1;" vertex="1" parent="1">
          <mxGeometry x="-3.5" y="370" width="78.5" height="45" as="geometry" />
        </mxCell>
        <mxCell id="6ywwPEVSYomNdrlcN4WN-39" value="工号" style="ellipse;whiteSpace=wrap;html=1;" vertex="1" parent="1">
          <mxGeometry x="-3" y="310" width="80" height="50" as="geometry" />
        </mxCell>
        <mxCell id="6ywwPEVSYomNdrlcN4WN-40" value="课程名" style="ellipse;whiteSpace=wrap;html=1;" vertex="1" parent="1">
          <mxGeometry x="520" y="460" width="80" height="50" as="geometry" />
        </mxCell>
        <mxCell id="6ywwPEVSYomNdrlcN4WN-41" value="" style="endArrow=none;html=1;rounded=0;entryX=0.5;entryY=1;entryDx=0;entryDy=0;exitX=0.5;exitY=0;exitDx=0;exitDy=0;" edge="1" parent="1" source="6ywwPEVSYomNdrlcN4WN-37" target="6ywwPEVSYomNdrlcN4WN-1">
          <mxGeometry width="50" height="50" relative="1" as="geometry">
            <mxPoint x="-20" y="580" as="sourcePoint" />
            <mxPoint x="30" y="530" as="targetPoint" />
          </mxGeometry>
        </mxCell>
        <mxCell id="6ywwPEVSYomNdrlcN4WN-42" value="" style="endArrow=none;html=1;rounded=0;entryX=0;entryY=1;entryDx=0;entryDy=0;exitX=1;exitY=0.5;exitDx=0;exitDy=0;" edge="1" parent="1" source="6ywwPEVSYomNdrlcN4WN-36" target="6ywwPEVSYomNdrlcN4WN-1">
          <mxGeometry width="50" height="50" relative="1" as="geometry">
            <mxPoint x="75" y="560" as="sourcePoint" />
            <mxPoint x="125" y="510" as="targetPoint" />
          </mxGeometry>
        </mxCell>
        <mxCell id="6ywwPEVSYomNdrlcN4WN-44" value="" style="endArrow=none;html=1;rounded=0;entryX=0;entryY=0;entryDx=0;entryDy=0;exitX=1;exitY=0.5;exitDx=0;exitDy=0;" edge="1" parent="1" source="6ywwPEVSYomNdrlcN4WN-39" target="6ywwPEVSYomNdrlcN4WN-1">
          <mxGeometry width="50" height="50" relative="1" as="geometry">
            <mxPoint x="-110" y="420" as="sourcePoint" />
            <mxPoint x="-60" y="370" as="targetPoint" />
          </mxGeometry>
        </mxCell>
        <mxCell id="6ywwPEVSYomNdrlcN4WN-45" value="" style="endArrow=none;html=1;rounded=0;entryX=0;entryY=0.5;entryDx=0;entryDy=0;exitX=1;exitY=0.5;exitDx=0;exitDy=0;" edge="1" parent="1" source="6ywwPEVSYomNdrlcN4WN-38" target="6ywwPEVSYomNdrlcN4WN-1">
          <mxGeometry width="50" height="50" relative="1" as="geometry">
            <mxPoint x="20" y="410" as="sourcePoint" />
            <mxPoint x="70" y="360" as="targetPoint" />
          </mxGeometry>
        </mxCell>
        <mxCell id="6ywwPEVSYomNdrlcN4WN-46" value="教学" style="shape=rhombus;perimeter=rhombusPerimeter;whiteSpace=wrap;html=1;align=center;" vertex="1" parent="1">
          <mxGeometry x="90" y="210" width="120" height="60" as="geometry" />
        </mxCell>
        <mxCell id="6ywwPEVSYomNdrlcN4WN-49" value="" style="endArrow=none;html=1;rounded=0;entryX=0.5;entryY=0;entryDx=0;entryDy=0;exitX=0.5;exitY=1;exitDx=0;exitDy=0;" edge="1" parent="1" source="6ywwPEVSYomNdrlcN4WN-2" target="6ywwPEVSYomNdrlcN4WN-46">
          <mxGeometry width="50" height="50" relative="1" as="geometry">
            <mxPoint x="20" y="340" as="sourcePoint" />
            <mxPoint x="70" y="290" as="targetPoint" />
          </mxGeometry>
        </mxCell>
        <mxCell id="6ywwPEVSYomNdrlcN4WN-50" value="" style="endArrow=none;html=1;rounded=0;" edge="1" parent="1">
          <mxGeometry width="50" height="50" relative="1" as="geometry">
            <mxPoint x="-140" y="250" as="sourcePoint" />
            <mxPoint x="-90" y="200" as="targetPoint" />
          </mxGeometry>
        </mxCell>
        <mxCell id="6ywwPEVSYomNdrlcN4WN-51" value="" style="endArrow=none;html=1;rounded=0;" edge="1" parent="1">
          <mxGeometry width="50" height="50" relative="1" as="geometry">
            <mxPoint x="-40" y="290" as="sourcePoint" />
            <mxPoint x="10" y="240" as="targetPoint" />
          </mxGeometry>
        </mxCell>
        <mxCell id="6ywwPEVSYomNdrlcN4WN-52" value="" style="endArrow=none;html=1;rounded=0;exitX=0.5;exitY=0;exitDx=0;exitDy=0;entryX=0.5;entryY=1;entryDx=0;entryDy=0;" edge="1" parent="1" source="6ywwPEVSYomNdrlcN4WN-1" target="6ywwPEVSYomNdrlcN4WN-46">
          <mxGeometry width="50" height="50" relative="1" as="geometry">
            <mxPoint x="40" y="290" as="sourcePoint" />
            <mxPoint x="90" y="240" as="targetPoint" />
          </mxGeometry>
        </mxCell>
        <mxCell id="6ywwPEVSYomNdrlcN4WN-53" value="n" style="text;html=1;align=center;verticalAlign=middle;resizable=0;points=[];autosize=1;strokeColor=none;fillColor=none;" vertex="1" parent="1">
          <mxGeometry x="160" y="180" width="20" height="20" as="geometry" />
        </mxCell>
        <mxCell id="6ywwPEVSYomNdrlcN4WN-54" value="m" style="text;html=1;align=center;verticalAlign=middle;resizable=0;points=[];autosize=1;strokeColor=none;fillColor=none;" vertex="1" parent="1">
          <mxGeometry x="155" y="290" width="30" height="20" as="geometry" />
        </mxCell>
        <mxCell id="6ywwPEVSYomNdrlcN4WN-55" value="课程" style="rounded=0;whiteSpace=wrap;html=1;" vertex="1" parent="1">
          <mxGeometry x="505" y="363" width="115" height="47" as="geometry" />
        </mxCell>
        <mxCell id="6ywwPEVSYomNdrlcN4WN-56" value="课程编号" style="ellipse;whiteSpace=wrap;html=1;" vertex="1" parent="1">
          <mxGeometry x="410" y="460" width="90" height="50" as="geometry" />
        </mxCell>
        <mxCell id="6ywwPEVSYomNdrlcN4WN-58" value="上课时间" style="ellipse;whiteSpace=wrap;html=1;" vertex="1" parent="1">
          <mxGeometry x="620" y="440" width="90" height="50" as="geometry" />
        </mxCell>
        <mxCell id="6ywwPEVSYomNdrlcN4WN-59" value="" style="endArrow=none;html=1;rounded=0;entryX=0;entryY=0;entryDx=0;entryDy=0;exitX=1;exitY=1;exitDx=0;exitDy=0;" edge="1" parent="1" source="6ywwPEVSYomNdrlcN4WN-55" target="6ywwPEVSYomNdrlcN4WN-58">
          <mxGeometry width="50" height="50" relative="1" as="geometry">
            <mxPoint x="320" y="340" as="sourcePoint" />
            <mxPoint x="370" y="290" as="targetPoint" />
          </mxGeometry>
        </mxCell>
        <mxCell id="6ywwPEVSYomNdrlcN4WN-60" value="" style="endArrow=none;html=1;rounded=0;entryX=0.443;entryY=1.064;entryDx=0;entryDy=0;entryPerimeter=0;" edge="1" parent="1" source="6ywwPEVSYomNdrlcN4WN-56" target="6ywwPEVSYomNdrlcN4WN-55">
          <mxGeometry width="50" height="50" relative="1" as="geometry">
            <mxPoint x="300" y="420" as="sourcePoint" />
            <mxPoint x="350" y="370" as="targetPoint" />
          </mxGeometry>
        </mxCell>
        <mxCell id="6ywwPEVSYomNdrlcN4WN-61" value="" style="endArrow=none;html=1;rounded=0;entryX=0.5;entryY=0;entryDx=0;entryDy=0;exitX=0.75;exitY=1;exitDx=0;exitDy=0;" edge="1" parent="1" source="6ywwPEVSYomNdrlcN4WN-55" target="6ywwPEVSYomNdrlcN4WN-40">
          <mxGeometry width="50" height="50" relative="1" as="geometry">
            <mxPoint x="260" y="500" as="sourcePoint" />
            <mxPoint x="310" y="450" as="targetPoint" />
          </mxGeometry>
        </mxCell>
        <mxCell id="6ywwPEVSYomNdrlcN4WN-62" value="任教" style="shape=rhombus;perimeter=rhombusPerimeter;whiteSpace=wrap;html=1;align=center;" vertex="1" parent="1">
          <mxGeometry x="280" y="363" width="120" height="60" as="geometry" />
        </mxCell>
        <mxCell id="6ywwPEVSYomNdrlcN4WN-63" value="" style="endArrow=none;html=1;rounded=0;entryX=0;entryY=0.5;entryDx=0;entryDy=0;exitX=1;exitY=0.5;exitDx=0;exitDy=0;" edge="1" parent="1" source="6ywwPEVSYomNdrlcN4WN-1" target="6ywwPEVSYomNdrlcN4WN-62">
          <mxGeometry width="50" height="50" relative="1" as="geometry">
            <mxPoint x="300" y="410" as="sourcePoint" />
            <mxPoint x="350" y="360" as="targetPoint" />
          </mxGeometry>
        </mxCell>
        <mxCell id="6ywwPEVSYomNdrlcN4WN-64" value="" style="endArrow=none;html=1;rounded=0;entryX=1;entryY=0.5;entryDx=0;entryDy=0;exitX=0;exitY=0.5;exitDx=0;exitDy=0;" edge="1" parent="1" source="6ywwPEVSYomNdrlcN4WN-55" target="6ywwPEVSYomNdrlcN4WN-62">
          <mxGeometry width="50" height="50" relative="1" as="geometry">
            <mxPoint x="340" y="370" as="sourcePoint" />
            <mxPoint x="390" y="320" as="targetPoint" />
          </mxGeometry>
        </mxCell>
        <mxCell id="6ywwPEVSYomNdrlcN4WN-65" value="管理员" style="rounded=0;whiteSpace=wrap;html=1;" vertex="1" parent="1">
          <mxGeometry x="490" y="110" width="120" height="60" as="geometry" />
        </mxCell>
        <mxCell id="6ywwPEVSYomNdrlcN4WN-66" value="工号" style="ellipse;whiteSpace=wrap;html=1;" vertex="1" parent="1">
          <mxGeometry x="490" y="20" width="87" height="50" as="geometry" />
        </mxCell>
        <mxCell id="6ywwPEVSYomNdrlcN4WN-68" value="" style="endArrow=none;html=1;rounded=0;entryX=0.5;entryY=0;entryDx=0;entryDy=0;exitX=0.5;exitY=1;exitDx=0;exitDy=0;" edge="1" parent="1" source="6ywwPEVSYomNdrlcN4WN-66" target="6ywwPEVSYomNdrlcN4WN-65">
          <mxGeometry width="50" height="50" relative="1" as="geometry">
            <mxPoint x="470" y="280" as="sourcePoint" />
            <mxPoint x="520" y="230" as="targetPoint" />
          </mxGeometry>
        </mxCell>
      </root>
    </mxGraphModel>
  </diagram>
</mxfile>
